<mxfile host="65bd71144e">
    <diagram id="6osHdcn2x2yMoviw2p-n" name="ページ1">
        <mxGraphModel dx="800" dy="585" grid="1" gridSize="10" guides="1" tooltips="1" connect="1" arrows="1" fold="1" page="1" pageScale="1" pageWidth="827" pageHeight="1169" math="0" shadow="0">
            <root>
                <mxCell id="0"/>
                <mxCell id="1" parent="0"/>
                <mxCell id="2" value="digbeats" style="rounded=0;whiteSpace=wrap;html=1;fillColor=none;verticalAlign=top;" vertex="1" parent="1">
                    <mxGeometry x="170" y="140" width="460" height="520" as="geometry"/>
                </mxCell>
                <mxCell id="3" value="" style="shape=actor;whiteSpace=wrap;html=1;" vertex="1" parent="1">
                    <mxGeometry x="40" y="370" width="40" height="60" as="geometry"/>
                </mxCell>
                <mxCell id="4" value="User" style="text;html=1;align=center;verticalAlign=middle;resizable=0;points=[];autosize=1;strokeColor=none;fillColor=none;" vertex="1" parent="1">
                    <mxGeometry x="35" y="400" width="50" height="30" as="geometry"/>
                </mxCell>
                <mxCell id="5" value="&lt;table&gt;&lt;tbody&gt;&lt;tr&gt;&lt;td&gt;&lt;/td&gt;&lt;/tr&gt;&lt;/tbody&gt;&lt;/table&gt;&lt;table&gt;&lt;tbody&gt;&lt;tr&gt;&lt;td&gt;Spotifyで&lt;br&gt;ログインする&lt;/td&gt;&lt;/tr&gt;&lt;/tbody&gt;&lt;/table&gt;" style="ellipse;whiteSpace=wrap;html=1;" vertex="1" parent="1">
                    <mxGeometry x="220" y="170" width="120" height="80" as="geometry"/>
                </mxCell>
                <mxCell id="6" value="&lt;table&gt;&lt;tbody&gt;&lt;tr&gt;&lt;td&gt;&lt;/td&gt;&lt;/tr&gt;&lt;/tbody&gt;&lt;/table&gt;&lt;table&gt;&lt;tbody&gt;&lt;tr&gt;&lt;td&gt;楽曲を入力して&lt;br&gt;レコメンドを取得する&lt;/td&gt;&lt;/tr&gt;&lt;/tbody&gt;&lt;/table&gt;" style="ellipse;whiteSpace=wrap;html=1;" vertex="1" parent="1">
                    <mxGeometry x="230" y="280" width="130" height="80" as="geometry"/>
                </mxCell>
                <mxCell id="7" value="レコメンド結果を&lt;div&gt;閲覧する&lt;/div&gt;" style="ellipse;whiteSpace=wrap;html=1;" vertex="1" parent="1">
                    <mxGeometry x="240" y="390" width="120" height="80" as="geometry"/>
                </mxCell>
                <mxCell id="8" value="履歴を&lt;div&gt;確認する&lt;/div&gt;" style="ellipse;whiteSpace=wrap;html=1;" vertex="1" parent="1">
                    <mxGeometry x="240" y="545" width="120" height="80" as="geometry"/>
                </mxCell>
                <mxCell id="9" value="&lt;table&gt;&lt;tbody&gt;&lt;tr&gt;&lt;td&gt;&lt;/td&gt;&lt;/tr&gt;&lt;/tbody&gt;&lt;/table&gt;&lt;table&gt;&lt;tbody&gt;&lt;tr&gt;&lt;td&gt;（拡張）&lt;br&gt;お気に入りに&lt;br&gt;登録する&lt;/td&gt;&lt;/tr&gt;&lt;/tbody&gt;&lt;/table&gt;" style="ellipse;whiteSpace=wrap;html=1;" vertex="1" parent="1">
                    <mxGeometry x="460" y="330" width="120" height="80" as="geometry"/>
                </mxCell>
                <mxCell id="10" value="" style="endArrow=none;html=1;" edge="1" parent="1" target="5">
                    <mxGeometry width="50" height="50" relative="1" as="geometry">
                        <mxPoint x="90" y="390" as="sourcePoint"/>
                        <mxPoint x="290" y="400" as="targetPoint"/>
                    </mxGeometry>
                </mxCell>
                <mxCell id="11" value="" style="endArrow=none;html=1;" edge="1" parent="1" target="6">
                    <mxGeometry width="50" height="50" relative="1" as="geometry">
                        <mxPoint x="90" y="410" as="sourcePoint"/>
                        <mxPoint x="264" y="282" as="targetPoint"/>
                    </mxGeometry>
                </mxCell>
                <mxCell id="12" value="" style="endArrow=none;html=1;" edge="1" parent="1" target="7">
                    <mxGeometry width="50" height="50" relative="1" as="geometry">
                        <mxPoint x="90" y="430" as="sourcePoint"/>
                        <mxPoint x="246" y="397" as="targetPoint"/>
                    </mxGeometry>
                </mxCell>
                <mxCell id="13" value="" style="endArrow=none;html=1;" edge="1" parent="1" target="8">
                    <mxGeometry width="50" height="50" relative="1" as="geometry">
                        <mxPoint x="90" y="440" as="sourcePoint"/>
                        <mxPoint x="244" y="486" as="targetPoint"/>
                    </mxGeometry>
                </mxCell>
                <mxCell id="14" value="Extends" style="endArrow=block;endSize=16;endFill=0;html=1;" edge="1" parent="1" source="9" target="7">
                    <mxGeometry width="160" relative="1" as="geometry">
                        <mxPoint x="260" y="500" as="sourcePoint"/>
                        <mxPoint x="420" y="500" as="targetPoint"/>
                    </mxGeometry>
                </mxCell>
                <mxCell id="15" value="Spotify IDとDisplayNameのみ&lt;div&gt;取得してDBに保存&lt;/div&gt;" style="shape=note;whiteSpace=wrap;html=1;backgroundOutline=1;darkOpacity=0.05;align=center;fillColor=#ffe6cc;strokeColor=#d79b00;" vertex="1" parent="1">
                    <mxGeometry x="450" y="190" width="120" height="80" as="geometry"/>
                </mxCell>
                <mxCell id="17" value="" style="endArrow=none;dashed=1;html=1;" edge="1" parent="1" source="5" target="15">
                    <mxGeometry width="50" height="50" relative="1" as="geometry">
                        <mxPoint x="350" y="450" as="sourcePoint"/>
                        <mxPoint x="400" y="400" as="targetPoint"/>
                    </mxGeometry>
                </mxCell>
                <mxCell id="24" value="&lt;table&gt;&lt;tbody&gt;&lt;tr&gt;&lt;td&gt;&lt;/td&gt;&lt;/tr&gt;&lt;/tbody&gt;&lt;/table&gt;&lt;table&gt;&lt;tbody&gt;&lt;tr&gt;&lt;td&gt;（拡張）&lt;br&gt;お気に入り一覧を&lt;br&gt;閲覧する&lt;/td&gt;&lt;/tr&gt;&lt;/tbody&gt;&lt;/table&gt;" style="ellipse;whiteSpace=wrap;html=1;" vertex="1" parent="1">
                    <mxGeometry x="440" y="520" width="120" height="80" as="geometry"/>
                </mxCell>
                <mxCell id="25" value="Extends" style="endArrow=block;endSize=16;endFill=0;html=1;" edge="1" parent="1" source="24">
                    <mxGeometry width="160" relative="1" as="geometry">
                        <mxPoint x="220" y="625" as="sourcePoint"/>
                        <mxPoint x="110" y="440" as="targetPoint"/>
                    </mxGeometry>
                </mxCell>
            </root>
        </mxGraphModel>
    </diagram>
</mxfile>